<svg width="32" height="32" viewBox="0 0 32 32" fill="none" xmlns="http://www.w3.org/2000/svg">
<path fill-rule="evenodd" clip-rule="evenodd" d="M4.96619 23.0339C3.30869 20.3956 2.63831 17.2363 3.07784 14.1347C3.51738 11.0332 5.03741 8.19706 7.3595 6.1458C9.68159 4.09455 12.6503 2.96552 15.7218 2.96552H16.6681V4.89655L15.7218 4.89655C13.1053 4.89655 10.5764 5.85832 8.59836 7.60569C6.62028 9.35305 5.32544 11.769 4.95102 14.4111C4.5766 17.0531 5.14767 19.7444 6.55962 21.9918C7.97156 24.2393 10.1299 25.8925 12.6392 26.6487C15.1485 27.4049 17.8408 27.2133 20.223 26.1092C22.6052 25.0051 24.5177 23.0622 25.6103 20.6366C26.7029 18.211 26.9024 15.4649 26.1722 12.9014C25.696 11.2294 24.845 9.70804 23.7012 8.44964L25.0889 7.13656C26.4316 8.61374 27.4306 10.3997 27.9897 12.3625C28.8468 15.3718 28.6127 18.5955 27.3301 21.443C26.0475 24.2904 23.8023 26.5711 21.0058 27.8673C18.2093 29.1635 15.0488 29.3883 12.1031 28.5006C9.15736 27.613 6.6237 25.6722 4.96619 23.0339Z" fill="#030E31"/>
<path fill-rule="evenodd" clip-rule="evenodd" d="M17.6145 2V5.86207H15.7218C13.3328 5.86207 11.0239 6.7402 9.21779 8.33563C7.41172 9.93105 6.22947 12.1369 5.88761 14.5492C5.54575 16.9616 6.06716 19.4188 7.35633 21.4708C8.6455 23.5228 10.6161 25.0323 12.9072 25.7227C15.1983 26.4131 17.6566 26.2382 19.8316 25.2301C22.0066 24.222 23.7529 22.4481 24.7504 20.2334C25.748 18.0187 25.9302 15.5114 25.2635 13.1709C24.8287 11.6442 24.0517 10.2552 23.0073 9.10618L22.3638 8.39823L25.1393 5.77209L25.7828 6.48003C27.2249 8.06658 28.2979 9.98483 28.8984 12.0931C29.8191 15.3253 29.5675 18.7877 28.1899 21.8461C26.8123 24.9045 24.4008 27.3542 21.3972 28.7464C18.3936 30.1385 14.9989 30.38 11.835 29.4266C8.6711 28.4732 5.94976 26.3887 4.16948 23.5549C2.3892 20.7212 1.66916 17.3279 2.14126 13.9966C2.61335 10.6653 4.24597 7.61906 6.74007 5.41586C9.23417 3.21266 12.4228 2 15.7218 2L17.6145 2ZM15.7218 2.96552C12.6503 2.96552 9.68159 4.09455 7.3595 6.1458C5.03741 8.19706 3.51738 11.0332 3.07784 14.1347C2.63831 17.2363 3.30869 20.3956 4.96619 23.0339C6.6237 25.6722 9.15736 27.613 12.1031 28.5006C15.0488 29.3883 18.2093 29.1635 21.0058 27.8673C23.8023 26.5711 26.0475 24.2904 27.3301 21.443C28.6127 18.5955 28.8468 15.3718 27.9897 12.3625C27.5201 10.7138 26.7401 9.18982 25.7067 7.86885C25.5098 7.61721 25.3038 7.37293 25.0889 7.13656L23.7012 8.44964C24.845 9.70804 25.696 11.2294 26.1722 12.9014C26.9024 15.4649 26.7029 18.211 25.6103 20.6366C24.5177 23.0622 22.6052 25.0051 20.223 26.1092C17.8408 27.2133 15.1485 27.4049 12.6392 26.6487C10.1299 25.8925 7.97156 24.2393 6.55962 21.9918C5.14767 19.7444 4.5766 17.0531 4.95102 14.4111C5.32544 11.769 6.62028 9.35305 8.59836 7.60569C10.5764 5.85832 13.1053 4.89655 15.7218 4.89655L16.6681 4.89655V2.96552H15.7218Z" fill="#030E31"/>
<path d="M23.1209 11.569L27.8606 8.10191L22.2392 5.22587L23.1209 11.569Z" fill="#030E31"/>
<path fill-rule="evenodd" clip-rule="evenodd" d="M29.6853 7.95673L22.4037 13.2832L21.0491 3.53821L29.6853 7.95673ZM27.8606 8.10191L22.2392 5.22587L23.1209 11.569L27.8606 8.10191Z" fill="#030E31"/>
<path d="M16.9761 21.7329V23H14.4697V21.7387C11.5383 21.3101 10.71 19.4007 10.71 18.3287H13.2164C13.2302 18.4957 13.4157 19.4965 15.7229 19.4965C17.4524 19.4965 18.2294 18.8133 18.2294 18.3287C18.2294 17.9503 18.2294 17.1608 15.7229 17.1608C11.3616 17.1608 10.71 14.9653 10.71 13.6573C10.71 12.1532 11.9995 10.6396 14.4697 10.2531V9H16.9761V10.2951C19.1492 10.7739 19.9839 12.4591 19.9839 13.6573H18.7306L17.4774 13.6783C17.4599 13.2346 17.208 12.4895 15.7229 12.4895C14.0949 12.4895 13.2164 13.0921 13.2164 13.6573C13.2164 14.0941 13.2164 14.8252 15.7229 14.8252C20.0841 14.8252 20.7358 17.0207 20.7358 18.3287C20.7358 19.8328 19.4462 21.3463 16.9761 21.7329Z" fill="#030E31"/>
</svg>
