<svg width="32" height="32" viewBox="0 0 32 32" fill="none" xmlns="http://www.w3.org/2000/svg">
<path d="M23.9999 29.3333C24.7072 29.3333 25.3854 29.0524 25.8855 28.5523C26.3856 28.0522 26.6666 27.3739 26.6666 26.6667V10.6667L18.6666 2.66666H7.99992C7.29267 2.66666 6.6144 2.94761 6.1143 3.4477C5.6142 3.9478 5.33325 4.62608 5.33325 5.33332V26.6667C5.33325 27.3739 5.6142 28.0522 6.1143 28.5523C6.6144 29.0524 7.29267 29.3333 7.99992 29.3333H23.9999ZM17.3333 5.33332L23.9999 12H17.3333V5.33332ZM9.33325 10.6667H13.3333V13.3333H9.33325V10.6667ZM9.33325 16H22.6666V18.6667H9.33325V16ZM9.33325 21.3333H22.6666V24H9.33325V21.3333Z" fill="#030E31"/>
</svg>
