<svg width="32" height="32" viewBox="0 0 32 32" fill="none" xmlns="http://www.w3.org/2000/svg">
<path d="M7.99992 29.3333H23.9999C24.2373 29.3333 24.4639 29.2933 24.6826 29.2347L19.6706 24.2227C18.5834 24.9469 17.3062 25.3333 15.9999 25.3333C12.3239 25.3333 9.33325 22.3427 9.33325 18.6667C9.33325 14.9907 12.3239 12 15.9999 12C19.6759 12 22.6666 14.9907 22.6666 18.6667C22.6667 19.973 22.2803 21.2502 21.5559 22.3373L26.5679 27.3493C26.6266 27.1307 26.6666 26.904 26.6666 26.6667V10.6667L18.6666 2.66666H7.99992C7.29267 2.66666 6.6144 2.94761 6.1143 3.4477C5.6142 3.9478 5.33325 4.62608 5.33325 5.33332V26.6667C5.33325 27.3739 5.6142 28.0522 6.1143 28.5523C6.6144 29.0524 7.29267 29.3333 7.99992 29.3333Z" fill="#030E31"/>
<path d="M16 22.6667C18.2091 22.6667 20 20.8758 20 18.6667C20 16.4575 18.2091 14.6667 16 14.6667C13.7909 14.6667 12 16.4575 12 18.6667C12 20.8758 13.7909 22.6667 16 22.6667Z" fill="#030E31"/>
</svg>
