<svg width="32" height="32" viewBox="0 0 32 32" fill="none" xmlns="http://www.w3.org/2000/svg">
<path fill-rule="evenodd" clip-rule="evenodd" d="M28.871 6.84821C28.93 6.94374 28.9629 7.05284 28.9664 7.16479C29.0452 9.16649 29.0675 13.464 28.0636 16.8531C26.2278 23.0522 22.1848 27.2339 16.3716 28.9466L16.1879 29L16.0003 28.9818H15.9963L15.8126 29L15.6289 28.9466C9.81573 27.2339 5.77274 23.0522 3.93693 16.8531C2.93308 13.464 2.95407 9.16649 3.03412 7.16479C3.03768 7.05284 3.07055 6.94374 3.1295 6.84821C3.18845 6.75267 3.27144 6.67399 3.37032 6.6199C3.46921 6.56581 3.58058 6.53816 3.6935 6.53968C3.80641 6.5412 3.91699 6.57184 4.01435 6.62857C4.89617 7.13746 6.26877 7.79732 7.48258 7.79732C8.03372 7.79732 8.59666 7.71402 9.17405 7.53962C9.53686 7.43255 9.89088 7.2981 10.233 7.13746H10.2343C11.9901 6.3058 13.6028 4.83771 15.0843 3.37743C15.3287 3.13855 15.6572 3.00322 16.0003 3C16.3434 3.00322 16.6718 3.13855 16.9162 3.37743C18.3977 4.83771 20.0104 6.3058 21.7662 7.13746C22.1089 7.2979 22.4633 7.43234 22.8265 7.53962C23.4039 7.71402 23.9655 7.79732 24.518 7.79732C25.7318 7.79732 27.1044 7.13876 27.9862 6.62857C28.0836 6.57184 28.1941 6.5412 28.307 6.53968C28.42 6.53816 28.5313 6.56581 28.6302 6.6199C28.7291 6.67399 28.8121 6.75267 28.871 6.84821ZM22.9306 11.9241C22.9623 11.9719 22.98 12.0264 22.9819 12.0824C23.0243 13.0832 23.0363 15.232 22.4958 16.9266C21.5073 20.0261 19.3303 22.1169 16.2001 22.9733L16.1012 23L16.0001 22.9909H15.998L15.8991 23L15.8002 22.9733C12.67 22.1169 10.493 20.0261 9.5045 16.9266C8.96396 15.232 8.97527 13.0832 9.01837 12.0824C9.02029 12.0264 9.03799 11.9719 9.06973 11.9241C9.10147 11.8763 9.14616 11.837 9.1994 11.81C9.25265 11.7829 9.31262 11.7691 9.37342 11.7698C9.43422 11.7706 9.49376 11.7859 9.54619 11.8143C10.021 12.0687 10.7601 12.3987 11.4137 12.3987C11.7105 12.3987 12.0136 12.357 12.3245 12.2698C12.5198 12.2163 12.7105 12.1491 12.8947 12.0687H12.8954C13.8408 11.6529 14.7092 10.9189 15.5069 10.1887C15.6385 10.0693 15.8154 10.0016 16.0001 10C16.1849 10.0016 16.3617 10.0693 16.4933 10.1887C17.2911 10.9189 18.1595 11.6529 19.1049 12.0687C19.2894 12.149 19.4803 12.2162 19.6758 12.2698C19.9867 12.357 20.2891 12.3987 20.5866 12.3987C21.2402 12.3987 21.9793 12.0694 22.4541 11.8143C22.5065 11.7859 22.5661 11.7706 22.6269 11.7698C22.6877 11.7691 22.7476 11.7829 22.8009 11.81C22.8541 11.837 22.8988 11.8763 22.9306 11.9241Z" fill="#030E31"/>
</svg>
