<svg width="32" height="32" viewBox="0 0 32 32" fill="none" xmlns="http://www.w3.org/2000/svg">
<path d="M8.66573 23.182V27.3737L10.352 26.3619L15.6522 23.182H20.909C22.1367 23.182 23.135 22.1836 23.135 20.956V12.0518C23.135 10.8241 22.1367 9.82574 20.909 9.82574H7.55271C6.32504 9.82574 5.32666 10.8241 5.32666 12.0518V20.956C5.32666 22.1836 6.32504 23.182 7.55271 23.182H8.66573ZM7.55271 12.0518H20.909V20.956H15.0356L10.8918 23.4425V20.956H7.55271V12.0518Z" fill="#F4F4F4"/>
<path d="M25.3611 5.37366H12.0049C10.7772 5.37366 9.77881 6.37204 9.77881 7.5997H23.1351C24.3628 7.5997 25.3611 8.59809 25.3611 9.82575V18.7299C26.5888 18.7299 27.5872 17.7316 27.5872 16.5039V7.5997C27.5872 6.37204 26.5888 5.37366 25.3611 5.37366Z" fill="#F4F4F4"/>
</svg>
